<svg version="1.1" xmlns="http://www.w3.org/2000/svg" xmlns:xlink="http://www.w3.org/1999/xlink" width="500" height="500"><g data-paper-data="{&quot;description&quot;:&quot;Logo for Code Unicorn\n=====================\n\nThis logo was generated by MarkMaker at http://emblemmatic.org/markmaker/ and may be composed of elements designed by others.\n\nThe font is Share Tech Mono designed by Ralph du Carrois and released under the OFL license via Google Fonts: https://www.google.com/fonts/specimen/Share%20Tech%20Mono. The font includes this copyright statement: Copyright (c) 2012, Carrois Type Design, Ralph du Carrois (www.carrois.com post@carrois.com), with Reserved Font Name 'Share'\n\nMarkMaker uses semantic data from the Princeton University WordNet database http://wordnet.princeton.edu and font descriptions from Google Fonts https://www.google.com/fonts.&quot;}" fill="#030303" fill-rule="nonzero" stroke="none" stroke-width="1" stroke-linecap="butt" stroke-linejoin="miter" stroke-miterlimit="10" stroke-dasharray="" stroke-dashoffset="0" font-family="none" font-weight="none" font-size="none" text-anchor="none" style="mix-blend-mode: normal"><g data-paper-data="{&quot;elementType&quot;:&quot;logo&quot;}"><g data-paper-data="{&quot;elementType&quot;:&quot;text&quot;}"><g data-paper-data="{&quot;baseline&quot;:70,&quot;elementType&quot;:&quot;row&quot;}"><g data-paper-data="{&quot;baselineProportion&quot;:1,&quot;fontSize&quot;:100,&quot;baseline&quot;:70,&quot;elementType&quot;:&quot;word&quot;}"><path d="M253.83923,245.49151c-6.95861,0 -12.29754,-1.69966 -16.0168,-5.09898c-3.71926,-3.39932 -5.57888,-8.4983 -5.57888,-15.29694v-43.19136c0,-6.79864 1.85963,-11.89762 5.57888,-15.29694c3.71926,-3.39932 9.05819,-5.09898 16.0168,-5.09898h17.03659v9.11818h-18.23635c-2.95941,0 -5.35893,0.87982 -7.19856,2.63947c-1.83963,1.75965 -2.75945,3.87922 -2.75945,6.35873v47.75045c0,2.4795 0.91982,4.59908 2.75945,6.35873c1.83963,1.75965 4.23915,2.63947 7.19856,2.63947h18.23635v9.11818z" data-paper-data="{&quot;elementType&quot;:&quot;letter&quot;,&quot;baseline&quot;:70,&quot;baselineProportion&quot;:1,&quot;fontSize&quot;:100}"></path><path d="M333.0234,226.29535c0,6.71866 -1.65967,11.59768 -4.979,14.63707c-3.31934,3.03939 -8.45831,4.55909 -15.41692,4.55909h-3.95921c-6.95861,0 -12.09758,-1.5197 -15.41692,-4.55909c-3.31934,-3.03939 -4.979,-7.91842 -4.979,-14.63707v-21.59568c0,-6.71866 1.65967,-11.59768 4.979,-14.63707c3.31934,-3.03939 8.45831,-4.55909 15.41692,-4.55909h3.95921c6.95861,0 12.09758,1.5197 15.41692,4.55909c3.31934,3.03939 4.979,7.91842 4.979,14.63707v21.59568M322.82543,202.30015c0,-2.4795 -0.75985,-4.39912 -2.27954,-5.75885c-1.5197,-1.35973 -3.75925,-2.03959 -6.71866,-2.03959h-6.35873c-2.95941,0 -5.19896,0.67986 -6.71866,2.03959c-1.5197,1.35973 -2.27954,3.27934 -2.27954,5.75885v26.39472c0,2.4795 0.75985,4.39912 2.27954,5.75885c1.5197,1.35973 3.75925,2.03959 6.71866,2.03959h6.35873c2.95941,0 5.19896,-0.67986 6.71866,-2.03959c1.5197,-1.35973 2.27954,-3.27934 2.27954,-5.75885z" data-paper-data="{&quot;elementType&quot;:&quot;letter&quot;,&quot;baseline&quot;:50,&quot;baselineProportion&quot;:1,&quot;fontSize&quot;:100}"></path><path d="M382.45351,242.73206c-2.63947,1.83963 -5.83883,2.75945 -9.59808,2.75945h-4.91902c-7.03859,0 -12.19756,-1.4997 -15.4769,-4.4991c-3.27934,-2.9994 -4.91902,-7.89842 -4.91902,-14.69706v-21.59568c0,-6.71866 1.65967,-11.59768 4.979,-14.63707c3.31934,-3.03939 8.45831,-4.55909 15.41692,-4.55909h13.91722v-23.9952h10.19796v83.9832h-9.59808v-2.75945M374.05519,236.49331c2.63947,0 4.59908,-0.69986 5.87882,-2.09958c1.27974,-1.39972 1.91962,-2.89942 1.91962,-4.4991v-35.39292h-15.11698c-2.95941,0 -5.19896,0.67986 -6.71866,2.03959c-1.5197,1.35973 -2.27954,3.27934 -2.27954,5.75885v26.39472c0,2.4795 0.75985,4.39912 2.27954,5.75885c1.5197,1.35973 3.75925,2.03959 6.71866,2.03959z" data-paper-data="{&quot;elementType&quot;:&quot;letter&quot;,&quot;baseline&quot;:70,&quot;baselineProportion&quot;:1,&quot;fontSize&quot;:100}"></path><path d="M428.28434,245.49151c-7.03859,0 -12.19756,-1.4997 -15.4769,-4.4991c-3.27934,-2.9994 -4.91902,-7.89842 -4.91902,-14.69706v-21.59568c0,-6.87862 1.4797,-11.79764 4.43911,-14.75705c2.95941,-2.95941 7.87842,-4.43911 14.75705,-4.43911h5.63887c5.67886,0 9.978,1.57968 12.89742,4.73905c2.91942,3.15937 4.37912,7.77844 4.37912,13.85723v15.59688h-31.91362v8.9982c0,2.4795 0.75985,4.39912 2.27954,5.75885c1.5197,1.35973 3.75925,2.03959 6.71866,2.03959h19.07618v8.9982h-17.87642M440.04199,201.70027c0,-2.07958 -0.67986,-3.79924 -2.03959,-5.15897c-1.35973,-1.35973 -3.07938,-2.03959 -5.15897,-2.03959h-6.95861c-2.87942,0 -4.89902,0.65987 -6.05879,1.9796c-1.15977,1.31974 -1.73965,3.25935 -1.73965,5.81884v8.39832h21.95561z" data-paper-data="{&quot;elementType&quot;:&quot;letter&quot;,&quot;baseline&quot;:50,&quot;baselineProportion&quot;:1,&quot;fontSize&quot;:100}"></path></g></g><g data-paper-data="{&quot;baseline&quot;:70,&quot;elementType&quot;:&quot;row&quot;}"><g data-paper-data="{&quot;baselineProportion&quot;:1,&quot;fontSize&quot;:100,&quot;baseline&quot;:70,&quot;elementType&quot;:&quot;word&quot;}"><path d="M96.19076,318.09577c0,6.79864 -1.85963,11.89762 -5.57888,15.29694c-3.71926,3.39932 -9.05819,5.09898 -16.0168,5.09898h-2.9994c-6.95861,0 -12.29754,-1.69966 -16.0168,-5.09898c-3.71926,-3.39932 -5.57888,-8.4983 -5.57888,-15.29694v-63.58728h10.43791v65.86683c0,2.4795 0.91982,4.59908 2.75945,6.35873c1.83963,1.75965 4.23915,2.63947 7.19856,2.63947h5.39892c2.95941,0 5.35893,-0.87982 7.19856,-2.63947c1.83963,-1.75965 2.75945,-3.87922 2.75945,-6.35873v-65.86683h10.43791z" data-paper-data="{&quot;elementType&quot;:&quot;letter&quot;,&quot;baseline&quot;:70,&quot;baselineProportion&quot;:1,&quot;fontSize&quot;:100}"></path><path d="M119.94601,278.50369v2.87942c2.4795,-1.91962 5.67886,-2.87942 9.59808,-2.87942h5.5189c6.4787,0 11.29774,1.5197 14.45711,4.55909c3.15937,3.03939 4.73905,7.91842 4.73905,14.63707v40.79184h-10.19796v-43.19136c0,-2.39952 -0.69986,-4.29914 -2.09958,-5.69886c-1.39972,-1.39972 -3.29934,-2.09958 -5.69886,-2.09958h-7.91842c-2.63947,0 -4.59908,0.69986 -5.87882,2.09958c-1.27974,1.39972 -1.91962,2.89942 -1.91962,4.4991v44.39112h-10.19796v-59.988z" data-paper-data="{&quot;elementType&quot;:&quot;letter&quot;,&quot;baseline&quot;:50,&quot;baselineProportion&quot;:1,&quot;fontSize&quot;:100}"></path><path d="M168.65627,287.50189v-8.9982h27.83443v50.9898h17.75645v8.9982h-27.95441v-50.9898zM197.09058,254.50849v10.79784h-11.39772v-10.79784h11.39772" data-paper-data="{&quot;elementType&quot;:&quot;letter&quot;,&quot;baseline&quot;:70,&quot;baselineProportion&quot;:1,&quot;fontSize&quot;:100}"></path><path d="M252.9994,338.49169c-7.03859,0 -12.19756,-1.4997 -15.4769,-4.4991c-3.27934,-2.9994 -4.91902,-7.89842 -4.91902,-14.69706v-21.59568c0,-6.71866 1.65967,-11.59768 4.979,-14.63707c3.31934,-3.03939 8.45831,-4.55909 15.41692,-4.55909h15.4769v8.9982h-16.67666c-2.95941,0 -5.19896,0.67986 -6.71866,2.03959c-1.5197,1.35973 -2.27954,3.27934 -2.27954,5.75885v26.39472c0,2.4795 0.75985,4.39912 2.27954,5.75885c1.5197,1.35973 3.75925,2.03959 6.71866,2.03959h16.67666v8.9982z" data-paper-data="{&quot;elementType&quot;:&quot;letter&quot;,&quot;baseline&quot;:50,&quot;baselineProportion&quot;:1,&quot;fontSize&quot;:100}"></path><path d="M332.06359,319.29553c0,6.71866 -1.65967,11.59768 -4.979,14.63707c-3.31934,3.03939 -8.45831,4.55909 -15.41692,4.55909h-3.95921c-6.95861,0 -12.09758,-1.5197 -15.41692,-4.55909c-3.31934,-3.03939 -4.979,-7.91842 -4.979,-14.63707v-21.59568c0,-6.71866 1.65967,-11.59768 4.979,-14.63707c3.31934,-3.03939 8.45831,-4.55909 15.41692,-4.55909h3.95921c6.95861,0 12.09758,1.5197 15.41692,4.55909c3.31934,3.03939 4.979,7.91842 4.979,14.63707v21.59568M321.86563,295.30033c0,-2.4795 -0.75985,-4.39912 -2.27954,-5.75885c-1.5197,-1.35973 -3.75925,-2.03959 -6.71866,-2.03959h-6.35873c-2.95941,0 -5.19896,0.67986 -6.71866,2.03959c-1.5197,1.35973 -2.27954,3.27934 -2.27954,5.75885v26.39472c0,2.4795 0.75985,4.39912 2.27954,5.75885c1.5197,1.35973 3.75925,2.03959 6.71866,2.03959h6.35873c2.95941,0 5.19896,-0.67986 6.71866,-2.03959c1.5197,-1.35973 2.27954,-3.27934 2.27954,-5.75885z" data-paper-data="{&quot;elementType&quot;:&quot;letter&quot;,&quot;baseline&quot;:50,&quot;baselineProportion&quot;:1,&quot;fontSize&quot;:100}"></path><path d="M357.25855,329.49349v-41.9916h-8.75825v-8.9982h18.35633v3.23935c2.63947,-2.15957 5.83883,-3.23935 9.59808,-3.23935h12.35753v9.59808h-13.55729c-2.55949,0 -4.4791,0.81984 -5.75885,2.45951c-1.27974,1.63967 -1.95961,3.29934 -2.03959,4.979v33.95321h13.07738v8.9982h-32.03359v-8.9982z" data-paper-data="{&quot;elementType&quot;:&quot;letter&quot;,&quot;baseline&quot;:50,&quot;baselineProportion&quot;:1,&quot;fontSize&quot;:100}"></path><path d="M415.68686,278.50369v2.87942c2.4795,-1.91962 5.67886,-2.87942 9.59808,-2.87942h5.5189c6.4787,0 11.29774,1.5197 14.45711,4.55909c3.15937,3.03939 4.73905,7.91842 4.73905,14.63707v40.79184h-10.19796v-43.19136c0,-2.39952 -0.69986,-4.29914 -2.09958,-5.69886c-1.39972,-1.39972 -3.29934,-2.09958 -5.69886,-2.09958h-7.91842c-2.63947,0 -4.59908,0.69986 -5.87882,2.09958c-1.27974,1.39972 -1.91962,2.89942 -1.91962,4.4991v44.39112h-10.19796v-59.988z" data-paper-data="{&quot;elementType&quot;:&quot;letter&quot;,&quot;baseline&quot;:50,&quot;baselineProportion&quot;:1,&quot;fontSize&quot;:100}"></path></g></g></g></g></g></svg>